<?xml version="1.0" encoding="UTF-8" standalone="no"?>
<!-- Created with Inkscape (http://www.inkscape.org/) -->

<svg
   width="400"
   height="100"
   viewBox="0 0 105.83333 26.458333"
   version="1.1"
   id="svg1"
   xml:space="preserve"
   xmlns:xlink="http://www.w3.org/1999/xlink"
   xmlns="http://www.w3.org/2000/svg"
   xmlns:svg="http://www.w3.org/2000/svg"><defs
     id="defs1"><linearGradient
       id="linearGradient2"><stop
         style="stop-color:#004671;stop-opacity:1;"
         offset="0.26733413"
         id="stop4" /><stop
         style="stop-color:#3555de;stop-opacity:1;"
         offset="0.45300576"
         id="stop6" /><stop
         style="stop-color:#b46dc2;stop-opacity:1;"
         offset="0.62981796"
         id="stop5" /><stop
         style="stop-color:#51c3ff;stop-opacity:1;"
         offset="0.83537185"
         id="stop7" /><stop
         style="stop-color:#019dff;stop-opacity:1;"
         offset="1"
         id="stop3" /></linearGradient><linearGradient
       xlink:href="#linearGradient2"
       id="linearGradient8"
       x1="38.568901"
       y1="80.754044"
       x2="117.36109"
       y2="42.913486"
       gradientUnits="userSpaceOnUse"
       gradientTransform="translate(-22.157553,-68.556064)" /></defs><g
     id="layer1"><path
       id="text1"
       style="font-size:19.05px;line-height:0.8;font-family:Futura-Bold;-inkscape-font-specification:Futura-Bold;text-align:end;letter-spacing:-0.693208px;text-anchor:end;opacity:0.999;fill:url(#linearGradient8);stroke-width:0.24421;stroke-linecap:round;stroke-linejoin:round;paint-order:fill markers stroke"
       d="m 16.900011,1.7703924 c -1.172225,0.059572 -2.386581,0.569122 -3.399275,1.581815 -0.0026,0.00257 -0.0052,0.00515 -0.0078,0.00775 L 4.8464837,12.186294 c -1.670525,1.643535 -2.370406,3.619563 -2.267561,5.46685 0.102845,1.847287 0.959408,3.543229 2.22467,4.808492 1.265263,1.265263 2.961205,2.119759 4.808492,2.222604 1.8472863,0.102846 3.8233143,-0.59497 5.4668493,-2.265495 6.9e-4,-6.88e-4 0.0014,-0.0014 0.0021,-0.0021 l 2.459443,-2.510076 6.200493,-6.328145 c 0.400715,-0.407518 0.394697,-1.06287 -0.01344,-1.462959 -0.408227,-0.400012 -1.063589,-0.392836 -1.46296,0.01602 l -8.660454,8.837704 c -1.280076,1.301096 -2.604724,1.723547 -3.8788323,1.652612 -1.274108,-0.07093 -2.51918,-0.683634 -3.458703,-1.623157 -0.939523,-0.939522 -1.552222,-2.187178 -1.623157,-3.461287 -0.07093,-1.274109 0.350999,-2.598757 1.652096,-3.878833 0.00468,-0.0037 0.00933,-0.0075 0.013952,-0.01137 L 14.963723,4.8151345 c 0.791889,-0.791889 1.563718,-1.022921 2.314588,-0.978752 0.750869,0.04417 1.501621,0.410214 2.070158,0.978752 0.568538,0.568537 0.934066,1.319289 0.978235,2.070158 0.04417,0.75087 -0.186345,1.522698 -0.978235,2.314587 -0.0021,0.0026 -0.0041,0.0052 -0.0062,0.0078 l -8.690942,8.8671595 c -0.304662,0.304662 -0.528521,0.353231 -0.7617103,0.339514 -0.23319,-0.01372 -0.498132,-0.136397 -0.701249,-0.339514 -0.203117,-0.203116 -0.324246,-0.465992 -0.337964,-0.699182 -0.01372,-0.233191 0.033303,-0.457049 0.337964,-0.761711 0.0026,-0.0026 0.00518,-0.0052 0.00775,-0.0078 L 17.89326,7.7307175 c 0.40037,-0.407457 0.394352,-1.062411 -0.01344,-1.462443 -0.408085,-0.400152 -1.063444,-0.393207 -1.462959,0.0155 L 7.7274697,15.150934 c -0.670138,0.670138 -0.988753,1.54306 -0.941545,2.345594 0.04721,0.802535 0.413561,1.513236 0.941545,2.041219 0.527983,0.527983 1.238168,0.893819 2.040702,0.941027 0.8025343,0.04721 1.6754553,-0.27089 2.3455923,-0.941027 0.0021,-0.0026 0.0041,-0.0052 0.0062,-0.0078 l 8.691459,-8.867159 c 1.157365,-1.1573655 1.657409,-2.5782565 1.579749,-3.8984705 -0.07766,-1.320213 -0.686345,-2.518791 -1.579749,-3.4121951 -0.893404,-0.893404 -2.091981,-1.502605 -3.412194,-1.580265 -0.165027,-0.00971 -0.331734,-0.010061 -0.499195,-0.00155 z m 80.192006,5.1061481 c -0.1524,0 -0.31136,0.0064 -0.47646,0.01912 -0.1524,0.0127 -0.31084,0.03144 -0.47594,0.05684 -0.0254,0 -0.0575,0.0064 -0.0956,0.01912 h -0.09508 l -0.15245,0.03824 h -0.13332 c -1.5875,0.254 -2.85119,0.984064 -3.79099,2.190564 -0.9271,1.2064995 -1.39061,2.5461935 -1.39061,4.0193935 0,0.2032 0.01284,0.406582 0.03824,0.609782 0.0254,0.2032 0.05698,0.406582 0.09508,0.609782 0.03807,0.2159 0.08895,0.425185 0.15245,0.628385 0.0635,0.2032 0.13361,0.406582 0.20981,0.609782 0.4826,1.2319 1.28277,2.178187 2.40037,2.838587 1.1176,0.6604 2.30475,1.009381 3.56205,1.047481 h 0.07648 0.09509 0.03824 0.07596 c 1.0922,-0.0127 2.14018,-0.279251 3.143483,-0.799951 1.0033,-0.5334 1.77137,-1.32073 2.30477,-2.36213 0.2286,-0.508 0.38114,-1.028779 0.45734,-1.562179 0.0762,-0.5334 0.12062,-1.073439 0.13332,-1.619539 v -0.45682 -0.476456 h -6.477123 v 2.533695 h 3.295923 c -0.127003,0.7366 -0.488823,1.301804 -1.085723,1.695504 -0.5969,0.3937 -1.25096,0.590662 -1.96216,0.590662 l -0.07648,-0.03824 c -1.0795,0 -1.87967,-0.361822 -2.40037,-1.085722 -0.5207,-0.7366 -0.78083,-1.606876 -0.78083,-2.610176 v -0.03772 -0.03824 c 0,0 -0.01912,-0.04466 -0.01912,-0.05736 v -0.01912 c 0,-1.0922 0.3174,-1.95554 0.9524,-2.59054 0.6477,-0.6476995 1.37776,-0.9715165 2.19056,-0.9715165 0.1016,0 0.20329,0.0064 0.30489,0.01912 0.1143,0.0127 0.22241,0.02502 0.32401,0.03772 0.3683,0.0889 0.73013,0.241436 1.08573,0.4573365 0.3556,0.2159 0.67941,0.508132 0.97151,0.876432 L 102.4643,9.6960045 c -0.6477,-0.9271 -1.44145,-1.625579 -2.38125,-2.095479 -0.927103,-0.4826 -1.924233,-0.723987 -2.991033,-0.723987 z M 27.963419,7.1623115 V 19.296971 h 3.334163 0.571025 c 0.2032,0 0.406582,-0.0064 0.609782,-0.01912 0.7112,-0.0381 1.416099,-0.13337 2.114599,-0.28577 0.6985,-0.1524 1.346134,-0.431792 1.943034,-0.838192 0.7366,-0.5334 1.301804,-1.219039 1.695504,-2.057239 0.3937,-0.8382 0.609405,-1.70796 0.647505,-2.60966 v -0.114721 -0.133326 -0.22841 c 0,-0.0762 -0.0059,-0.152209 -0.0186,-0.228409 -0.0508,-0.8636 -0.273443,-1.701776 -0.667143,-2.514576 -0.3937,-0.8127995 -0.946063,-1.4668545 -1.657263,-1.9621545 -0.5588,-0.4064 -1.174849,-0.685791 -1.847949,-0.838191 -0.6604,-0.1524 -1.333198,-0.247671 -2.018998,-0.285771 -0.1905,-0.01275 -0.387462,-0.01912 -0.590662,-0.01912 h -0.571541 z m 40.166023,0 V 19.296971 H 71.2538 v -4.7625 l 2.781225,4.7625 h 3.733622 l -3.314526,-4.914945 c 0.914399,-0.2159 1.593618,-0.609306 2.038118,-1.180806 0.4572,-0.5715 0.685747,-1.340086 0.685747,-2.305286 v -0.114205 c -0.0254,-0.5461 -0.152256,-1.0668805 -0.380856,-1.5621795 -0.2159,-0.4953 -0.539716,-0.914387 -0.971516,-1.257287 -0.3429,-0.2667 -0.723984,-0.450821 -1.143083,-0.552421 -0.4191,-0.1143 -0.844608,-0.184407 -1.276408,-0.209807 -0.1524,-0.01275 -0.30442,-0.0186 -0.45682,-0.0186 -0.1524,-0.01275 -0.304936,-0.01912 -0.457336,-0.01912 z m 14.242025,0 -4.17184,12.1346595 h 3.27629 l 0.6289,-2.190563 h 4.68602 l 0.60978,2.190563 h 3.31453 L 86.505067,7.1623115 Z m 2.07636,1.943034 c 0.0127,0.0635 0.02554,0.133089 0.03824,0.209289 0.0127,0.0635 0.03144,0.133606 0.05684,0.209806 0.03805,0.203199 0.08253,0.412486 0.13333,0.6283865 0.06347,0.2032 0.12719,0.400161 0.19069,0.590661 l 1.23816,4.019393 h -3.2954 l 1.23816,-4.019393 c 0.05075,-0.1778 0.09523,-0.3555 0.13333,-0.5333 0.05085,-0.1778 0.09522,-0.3619225 0.13332,-0.5524215 0.0131,-0.0254 0.01912,-0.04466 0.01912,-0.05736 0,-0.0254 0.0064,-0.05057 0.01912,-0.07597 0.0127,-0.0762 0.02503,-0.146306 0.03773,-0.209806 0.0254,-0.0762 0.04466,-0.145789 0.05736,-0.209289 z M 71.2538,9.6960065 h 0.114204 0.19017 0.209806 c 0.5334,0.0127 1.022594,0.107972 1.467094,0.285771 0.4445,0.1778005 0.666626,0.5968875 0.666626,1.2572875 v 0.09508 c -0.0127,0.7112 -0.254087,1.155452 -0.723987,1.333252 -0.4572,0.1651 -0.958718,0.248047 -1.504818,0.248047 h -0.03824 -0.01912 -0.09509 c -0.0254,-0.01275 -0.05108,-0.01912 -0.07648,-0.01912 H 71.32976 c -0.0254,-0.01275 -0.05056,-0.01912 -0.07596,-0.01912 z m -40.032699,0.190169 h 0.838192 0.190686 0.209289 c 0.3429,0.0127 0.673137,0.05713 0.990637,0.1333265 0.3302,0.0762 0.628853,0.222316 0.895553,0.438216 0.3556,0.2667 0.634992,0.628522 0.838192,1.085722 0.2032,0.4445 0.317215,0.908012 0.342615,1.390612 0.01275,0.0508 0.01912,0.101646 0.01912,0.152446 v 0.152445 c 0,0.5461 -0.101691,1.073299 -0.304891,1.581299 -0.1905,0.4953 -0.488636,0.889223 -0.895036,1.181323 -0.254,0.1778 -0.539812,0.311076 -0.857312,0.399976 -0.3175,0.0889 -0.641317,0.146166 -0.971517,0.171566 -0.127,0.0127 -0.260275,0.02502 -0.399975,0.03772 h -0.399976 -0.114722 c -0.0381,-0.01265 -0.08253,-0.01912 -0.133325,-0.01912 h -0.133325 c -0.0381,-0.01275 -0.07611,-0.0186 -0.114205,-0.0186 z m 22.864237,0.7431075 c -1.143,0 -2.146036,0.412668 -3.009635,1.238168 -0.8509,0.8255 -1.276408,1.905062 -1.276408,3.238562 l -0.03824,0.05736 c 0,1.3462 0.425507,2.412921 1.276407,3.200321 0.850899,0.7747 1.835192,1.161686 2.952792,1.161686 0.1905,0 0.381041,-0.01232 0.571541,-0.03772 0.1905,-0.0127 0.381041,-0.03838 0.571541,-0.07648 0.1905,-0.0508 0.380525,-0.108065 0.571025,-0.171565 0.1905,-0.0635 0.381041,-0.13951 0.571541,-0.22841 v -2.552816 c -0.1651,0.1651 -0.3428,0.304796 -0.5333,0.419096 -0.1778,0.1016 -0.368342,0.184547 -0.571542,0.248047 -0.1016,0.0254 -0.209194,0.05056 -0.323494,0.07596 -0.1016,0.01275 -0.203291,0.01912 -0.304891,0.01912 -0.4826,0 -0.914528,-0.184121 -1.295528,-0.552421 -0.3683,-0.3683 -0.552421,-0.901919 -0.552421,-1.600419 0,-0.4699 0.120435,-0.901311 0.361735,-1.295011 0.2413,-0.4064 0.603638,-0.667048 1.086238,-0.781348 h 0.07597 c 0.0381,-0.01275 0.0761,-0.01912 0.114205,-0.01912 h 0.133325 0.114721 c 0.3175,0 0.615636,0.07011 0.895036,0.209806 0.2921,0.127 0.558651,0.29186 0.799951,0.49506 v -2.495454 c -0.1778,-0.1016 -0.361921,-0.184031 -0.552421,-0.247531 -0.1778,-0.0635 -0.3555,-0.120765 -0.5333,-0.171565 -0.1905,-0.0508 -0.381042,-0.08238 -0.571542,-0.09509 -0.1778,-0.0254 -0.355501,-0.03824 -0.533301,-0.03824 z m -9.688814,0.01912 c -0.8128,0 -1.594226,0.202865 -2.343526,0.609265 -0.7493,0.4064 -1.333248,0.984444 -1.752348,1.733744 -0.1143,0.1905 -0.209571,0.393882 -0.285771,0.609782 -0.0762,0.2032 -0.133465,0.406065 -0.171565,0.609265 -0.0381,0.1524 -0.06326,0.304937 -0.07596,0.457337 -0.01275,0.1524 -0.01912,0.298516 -0.01912,0.438216 0,0.8001 0.222126,1.568685 0.666626,2.305285 0.4445,0.7239 1.041288,1.282684 1.790588,1.676384 0.2032,0.1016 0.419423,0.18403 0.648023,0.24753 0.2286,0.0635 0.463566,0.114346 0.704866,0.152446 0.127,0.0254 0.253856,0.04414 0.380856,0.05684 0.1397,0.01275 0.272975,0.01912 0.399975,0.01912 h 0.114205 0.152446 c 0.8509,-0.0508 1.65749,-0.310931 2.41949,-0.780831 0.7747,-0.4826 1.339904,-1.136654 1.695504,-1.962154 0.0762,-0.1778 0.139369,-0.355501 0.190169,-0.533301 0.0508,-0.1905 0.08932,-0.381041 0.114722,-0.571541 0.01265,-0.0889 0.0186,-0.177751 0.0186,-0.266651 0.01275,-0.1016 0.01912,-0.19687 0.01912,-0.28577 0,-0.0635 -0.0064,-0.127186 -0.01912,-0.190686 v -0.22841 c -0.0635,-0.6604 -0.272785,-1.29571 -0.628385,-1.90531 -0.3556,-0.6096 -0.825533,-1.091857 -1.409733,-1.447457 -0.2667,-0.1778 -0.552512,-0.317496 -0.857312,-0.419096 -0.3048,-0.1143 -0.615776,-0.197247 -0.933276,-0.248047 -0.1397,-0.0254 -0.279396,-0.04414 -0.419096,-0.05684 -0.127,-0.01275 -0.260276,-0.01912 -0.399976,-0.01912 z m 13.281877,0.28577 v 4.247803 c 0,0.6985 0.06369,1.358975 0.190686,1.981275 0.1397,0.6096 0.507942,1.143219 1.104842,1.600419 0.3556,0.254 0.774688,0.444541 1.257288,0.571541 0.4953,0.1397 0.996817,0.22213 1.504817,0.24753 h 0.152446 0.152445 0.152446 0.171565 c 0.4953,-0.0254 0.977557,-0.10783 1.447457,-0.24753 0.4826,-0.127 0.901688,-0.317541 1.257288,-0.571541 0.5969,-0.4826 0.958722,-1.02264 1.085722,-1.61954 0.1397,-0.5969 0.209806,-1.250954 0.209806,-1.962154 v -4.247803 h -2.914551 v 4.438489 c 0,0.5461 -0.08243,1.016033 -0.24753,1.409733 -0.1651,0.381 -0.571864,0.571542 -1.219564,0.571542 -0.6223,0 -1.022126,-0.196962 -1.199926,-0.590662 -0.1778,-0.4064 -0.266651,-0.869913 -0.266651,-1.390613 v -4.438489 z m -13.281877,2.209685 c 0.5461,0 0.952347,0.184121 1.219047,0.552421 0.2794,0.3556 0.431937,0.743103 0.457337,1.162203 v 0.07596 0.03824 c 0,0.4445 -0.139696,0.857167 -0.419096,1.238167 -0.2794,0.3683 -0.698488,0.552421 -1.257288,0.552421 -0.4445,0 -0.844843,-0.184121 -1.200443,-0.552421 -0.3429,-0.3683 -0.514181,-0.793808 -0.514181,-1.276408 0,-0.4572 0.152537,-0.869867 0.457337,-1.238167 0.3175,-0.3683 0.736587,-0.552421 1.257287,-0.552421 z" /></g></svg>
